<?xml version="1.0" standalone="no"?>
<!DOCTYPE svg PUBLIC "-//W3C//DTD SVG 20010904//EN"
 "http://www.w3.org/TR/2001/REC-SVG-20010904/DTD/svg10.dtd">
<svg version="1.0" xmlns="http://www.w3.org/2000/svg"
 width="2560.000000pt" height="811.000000pt" viewBox="0 0 2560.000000 811.000000"
 preserveAspectRatio="xMidYMid meet">

<g transform="translate(0.000000,811.000000) scale(0.100000,-0.100000)"
fill="#000000" stroke="none">
<path d="M19790 8099 c-209 -18 -465 -74 -655 -144 -238 -87 -524 -249 -722
-409 -179 -145 -372 -358 -508 -561 -82 -124 -222 -405 -270 -545 -48 -138
-90 -313 -118 -485 l-22 -140 0 -2495 0 -2495 23 -89 c91 -359 367 -622 746
-709 91 -21 93 -21 2396 -25 2407 -3 2620 0 2849 39 716 121 1350 544 1724
1150 206 334 323 688 357 1084 14 166 14 4849 0 4965 -30 241 -132 447 -301
605 -154 144 -337 228 -559 255 -102 12 -4794 12 -4940 -1z m5010 -3161 c0
-1438 -4 -2470 -10 -2554 -18 -258 -73 -470 -175 -676 -260 -523 -757 -871
-1340 -938 -59 -6 -928 -10 -2533 -10 l-2442 0 2 2533 3 2532 23 109 c159 750
747 1312 1470 1405 37 5 1177 9 2535 10 l2467 1 0 -2412z"/>
<path d="M19897 6435 c-258 -49 -474 -207 -595 -436 -175 -329 -118 -761 136
-1030 112 -120 222 -188 379 -236 77 -23 105 -26 233 -27 118 0 162 4 233 22
366 92 611 373 658 754 18 152 -5 322 -62 453 -56 129 -176 274 -295 356 -70
48 -200 105 -294 128 -112 29 -288 36 -393 16z"/>
<path d="M20762 4055 l-1562 -2345 780 0 780 0 1560 2340 c858 1287 1560 2342
1560 2345 0 3 -350 5 -777 5 l-778 -1 -1563 -2344z"/>
<path d="M22930 3410 c-84 -10 -220 -50 -295 -88 -233 -117 -407 -338 -472
-599 -26 -103 -23 -323 5 -428 88 -326 334 -568 662 -651 101 -25 307 -26 400
0 419 115 708 550 651 982 -57 428 -393 760 -796 787 -44 2 -114 1 -155 -3z"/>
<path d="M0 4035 l0 -3226 1333 4 c938 3 1360 8 1427 16 493 61 915 198 1297
422 813 477 1377 1294 1533 2219 36 219 44 315 44 560 0 396 -49 691 -175
1055 -374 1085 -1306 1896 -2424 2110 -306 59 -267 58 -1707 62 l-1328 4 0
-3226z m2531 1655 c340 -35 637 -150 899 -350 371 -283 606 -719 639 -1186 42
-605 -231 -1159 -738 -1498 -177 -118 -421 -216 -645 -258 -101 -19 -157 -21
-618 -25 l-508 -5 0 1666 0 1666 434 0 c239 0 480 -5 537 -10z"/>
<path d="M7323 5907 l-823 -352 0 -2372 0 -2373 825 0 825 0 0 2725 c0 1499
-1 2725 -2 2725 -2 -1 -373 -159 -825 -353z"/>
<path d="M11505 6160 c-539 -31 -1021 -208 -1465 -538 -141 -105 -396 -358
-503 -499 -527 -695 -704 -1585 -482 -2431 274 -1041 1124 -1789 2220 -1954
56 -8 178 -13 325 -13 202 0 252 4 355 23 452 86 853 286 1171 585 l52 48 598
-277 c330 -152 607 -280 617 -286 17 -9 18 49 14 1419 -3 1426 -3 1428 -26
1568 -50 312 -126 557 -255 820 -87 176 -214 377 -332 525 -88 109 -295 316
-404 404 -214 171 -530 351 -774 441 -346 127 -743 186 -1111 165z m458 -1593
c595 -157 957 -716 877 -1356 -45 -353 -292 -685 -634 -851 -174 -84 -305
-117 -496 -126 -564 -26 -1053 336 -1197 885 -34 131 -43 373 -19 506 46 249
155 461 323 628 177 175 364 276 608 327 136 29 402 22 538 -13z"/>
</g>
</svg>
